<svg xmlns="http://www.w3.org/2000/svg" viewBox="0 0 32 32" width="32" height="32">
  <defs>
    <linearGradient id="greenGradient" x1="0%" y1="0%" x2="100%" y2="100%">
      <stop offset="0%" style="stop-color:#4ade80;stop-opacity:1" />
      <stop offset="50%" style="stop-color:#22c55e;stop-opacity:1" />
      <stop offset="100%" style="stop-color:#16a34a;stop-opacity:1" />
    </linearGradient>
    <filter id="shadow" x="-20%" y="-20%" width="140%" height="140%">
      <feDropShadow dx="1" dy="1" stdDeviation="1" flood-color="#000000" flood-opacity="0.3"/>
    </filter>
  </defs>
  
  <!-- Background circle -->
  <circle cx="16" cy="16" r="14" fill="url(#greenGradient)" filter="url(#shadow)"/>
  
  <!-- Curvine logo - simplified C shape -->
  <path d="M 22 10 L 14 10 C 11 10 9 12 9 16 C 9 20 11 22 14 22 L 18 22 L 18 20 L 14 20 C 12 20 11 19 11 16 C 11 13 12 12 14 12 L 20 12 L 20 10 Z" 
        fill="white"/>
  
  <!-- Inner opening for C -->
  <path d="M 16 14 L 19 14 L 19 16 L 16 16 C 15 16 14 17 14 18 C 14 19 15 20 16 20 L 18 20 L 18 18 L 19 18 L 19 20 L 16 20 C 13 20 12 18 12 16 L 12 14 C 12 13 13 12 16 12 L 19 12 L 19 14 Z" 
        fill="url(#greenGradient)"/>
</svg>